<?xml version="1.0" encoding="utf-8"?>
<svg width="512px" height="512px" viewBox="0 0 512 512" version="1.1" xmlns:xlink="http://www.w3.org/1999/xlink" xmlns="http://www.w3.org/2000/svg">
  <defs>
    <path d="M512 0L512 0L512 512L0 512L0 0L512 0Z" id="path_1" />
    <clipPath id="clip_1">
      <use xlink:href="#path_1" clip-rule="evenodd" fill-rule="evenodd" />
    </clipPath>
  </defs>
  <g id="Icon 512">
    <path d="M512 0L512 0L512 512L0 512L0 0L512 0Z" id="Icon-512" fill="#FFFFFF" fill-opacity="0" stroke="none" />
    <g id="Icon" transform="translate(22 16)" clip-path="url(#clip_1)">
      <g id="Teka" transform="translate(28.711653 0)">
        <path d="M434.296 0C437.058 0 439.296 2.2382 439.296 5L439.296 85.003C439.296 87.7648 437.058 90.003 434.296 90.003L5 90.003C2.2382 90.003 0 87.7648 0 85.003L0 5C0 2.2382 2.2382 0 5 0L434.296 0Z" id="Rectangle" fill="#1E9DEB" stroke="none" />
        <path d="M28.7117 46.5008C28.7117 34.074 38.3528 24 50.2459 24C62.1388 24 71.7799 34.074 71.7799 46.5008C71.7799 58.9276 62.1388 69.0015 50.2459 69.0015C38.3528 69.0015 28.7117 58.9276 28.7117 46.5008Z" id="Oval" fill="#FFFFFF" fill-rule="evenodd" stroke="none" />
        <path d="M300.345 33C302.555 33 304.345 34.7906 304.345 37L304.345 53.0008C304.345 55.2102 302.555 57.0008 300.345 57.0008L222.209 57.0008C219.999 57.0008 218.209 55.2102 218.209 53.0008L218.209 37C218.209 34.7906 219.999 33 222.209 33L300.345 33Z" id="Rectangle-2" fill="#FFFFFF" stroke="none" />
        <path d="M406.578 33C408.788 33 410.578 34.7906 410.578 37L410.578 53.0008C410.578 55.2102 408.788 57.0008 406.578 57.0008L328.442 57.0008C326.232 57.0008 324.442 55.2102 324.442 53.0008L324.442 37C324.442 34.7906 326.232 33 328.442 33L406.578 33Z" id="Rectangle-3" fill="#FFFFFF" stroke="none" />
      </g>
      <g id="Teka-2" transform="translate(0 101.999985)">
        <path d="M434.296 0C437.058 0 439.296 2.2382 439.296 5L439.296 85.003C439.296 87.7648 437.058 90.003 434.296 90.003L5 90.003C2.2382 90.003 0 87.7648 0 85.003L0 5C0 2.2382 2.2382 0 5 0L434.296 0Z" id="Rectangle" fill="#43ADEF" stroke="none" />
        <path d="M28.7117 46.5009C28.7117 34.0739 38.3528 24 50.2458 24C62.1388 24 71.7799 34.0739 71.7799 46.5009C71.7799 58.9276 62.1388 69.0015 50.2458 69.0015C38.3528 69.0015 28.7117 58.9276 28.7117 46.5009Z" id="Oval" fill="#FFFFFF" fill-rule="evenodd" stroke="none" />
        <path d="M300.345 33C302.555 33 304.345 34.7906 304.345 37L304.345 52.9999C304.345 55.2093 302.555 56.9999 300.345 56.9999L222.209 56.9999C219.999 56.9999 218.209 55.2093 218.209 52.9999L218.209 37C218.209 34.7906 219.999 33 222.209 33L300.345 33Z" id="Rectangle-2" fill="#FFFFFF" stroke="none" />
        <path d="M406.578 33C408.788 33 410.578 34.7906 410.578 37L410.578 52.9999C410.578 55.2093 408.788 56.9999 406.578 56.9999L328.442 56.9999C326.232 56.9999 324.442 55.2093 324.442 52.9999L324.442 37C324.442 34.7906 326.232 33 328.442 33L406.578 33Z" id="Rectangle-3" fill="#FFFFFF" stroke="none" />
      </g>
      <g id="Teka-3" transform="translate(28.711653 203.99997)">
        <path d="M434.296 0C437.058 0 439.296 2.2382 439.296 5L439.296 85.003C439.296 87.7648 437.058 90.003 434.296 90.003L5 90.003C2.2382 90.003 0 87.7648 0 85.003L0 5C0 2.2382 2.2382 0 5 0L434.296 0Z" id="Rectangle" fill="#43ADEF" stroke="none" />
        <path d="M28.7117 46.5007C28.7117 34.0741 38.3528 24 50.2459 24C62.1388 24 71.7799 34.0741 71.7799 46.5007C71.7799 58.9275 62.1388 69.0015 50.2459 69.0015C38.3528 69.0015 28.7117 58.9275 28.7117 46.5007Z" id="Oval" fill="#FFFFFF" fill-rule="evenodd" stroke="none" />
        <path d="M300.345 33C302.555 33 304.345 34.7906 304.345 37L304.345 53.0008C304.345 55.2103 302.555 57.0008 300.345 57.0008L222.209 57.0008C219.999 57.0008 218.209 55.2103 218.209 53.0008L218.209 37C218.209 34.7906 219.999 33 222.209 33L300.345 33Z" id="Rectangle-2" fill="#FFFFFF" stroke="none" />
        <path d="M406.578 33C408.788 33 410.578 34.7906 410.578 37L410.578 53.0008C410.578 55.2103 408.788 57.0008 406.578 57.0008L328.442 57.0008C326.232 57.0008 324.442 55.2103 324.442 53.0008L324.442 37C324.442 34.7906 326.232 33 328.442 33L406.578 33Z" id="Rectangle-3" fill="#FFFFFF" stroke="none" />
      </g>
      <g id="Teka-4" transform="translate(0 305.99997)">
        <path d="M434.296 0C437.058 0 439.296 2.2382 439.296 5L439.296 85.003C439.296 87.7648 437.058 90.003 434.296 90.003L5 90.003C2.2382 90.003 0 87.7648 0 85.003L0 5C0 2.2382 2.2382 0 5 0L434.296 0Z" id="Rectangle" fill="#0C5888" stroke="none" />
        <path d="M28.7117 46.5005C28.7117 34.074 38.3528 24 50.2458 24C62.1388 24 71.7799 34.074 71.7799 46.5005C71.7799 58.928 62.1388 69.0015 50.2458 69.0015C38.3528 69.0015 28.7117 58.928 28.7117 46.5005Z" id="Oval" fill="#FFFFFF" fill-rule="evenodd" stroke="none" />
        <path d="M300.345 33C302.555 33 304.345 34.7906 304.345 37L304.345 52.9999C304.345 55.2093 302.555 56.9999 300.345 56.9999L222.209 56.9999C219.999 56.9999 218.209 55.2093 218.209 52.9999L218.209 37C218.209 34.7906 219.999 33 222.209 33L300.345 33Z" id="Rectangle-2" fill="#FFFFFF" stroke="none" />
        <path d="M406.578 33C408.788 33 410.578 34.7906 410.578 37L410.578 52.9999C410.578 55.2093 408.788 56.9999 406.578 56.9999L328.442 56.9999C326.232 56.9999 324.442 55.2093 324.442 52.9999L324.442 37C324.442 34.7906 326.232 33 328.442 33L406.578 33Z" id="Rectangle-3" fill="#FFFFFF" stroke="none" />
      </g>
      <path d="M315.828 408L384.736 408L384.736 480L350.282 456L315.828 480L315.828 408Z" id="Rectangle" fill="#0C5888" fill-rule="evenodd" stroke="none" />
    </g>
  </g>
</svg>