<?xml version="1.0" encoding="utf-8"?>
<svg width="257px" height="74px" viewBox="0 0 257 74" version="1.1" xmlns:xlink="http://www.w3.org/1999/xlink" xmlns="http://www.w3.org/2000/svg">
  <defs>
    <path d="M257 0L257 0L257 74L0 74L0 0L257 0Z" id="path_1" />
    <path d="M64 0L64 0L64 64L0 64L0 0L64 0Z" id="path_2" />
    <path d="M64 0L64 0L64 64L0 64L0 0L64 0L64 0Z" id="path_3" />
    <path d="M0 0L191 0L191 79L0 79L0 0Z" id="path_4" />
    <clipPath id="clip_1">
      <use xlink:href="#path_1" clip-rule="evenodd" fill-rule="evenodd" />
    </clipPath>
    <clipPath id="clip_2">
      <use xlink:href="#path_2" clip-rule="evenodd" fill-rule="evenodd" />
    </clipPath>
    <clipPath id="clip_3">
      <use xlink:href="#path_3" clip-rule="evenodd" fill-rule="evenodd" />
    </clipPath>
    <clipPath id="clip_4">
      <use xlink:href="#path_4" clip-rule="evenodd" fill-rule="evenodd" transform="translate(0, -16.712002)" />
    </clipPath>
  </defs>
  <g id="Icon 256">
    <path d="M257 0L257 0L257 74L0 74L0 0L257 0Z" id="Icon-256" fill="#FFFFFF" fill-opacity="0" stroke="none" />
    <g id="Icon 512" clip-path="url(#clip_1)">
      <path d="M64 0L64 0L64 64L0 64L0 0L64 0Z" id="Icon-512" fill="none" stroke="none" transform="translate(0 9)" />
      <g id="Icon-512" clip-path="url(#clip_2)" transform="translate(0 9)">
        <path d="M64 0L64 0L64 64L0 64L0 0L64 0L64 0Z" id="Icon-512" fill="#FFFFFF" fill-opacity="0" stroke="none" />
        <g id="Mask-Group" transform="translate(2.75 2)">
          <path d="M64 0L64 0L64 64L0 64L0 0L64 0L64 0Z" id="path_1" fill="none" fill-rule="evenodd" stroke="none" />
          <g clip-path="url(#clip_3)">
            <g id="Icon">
              <g id="Teka" transform="translate(3.5889568 0)">
                <path d="M54.287 0C54.6323 0 54.912 0.279775 54.912 0.625L54.912 10.6254C54.912 10.9706 54.6323 11.2504 54.287 11.2504L0.625 11.2504C0.279775 11.2504 0 10.9706 0 10.6254L0 0.625C0 0.279775 0.279775 0 0.625 0L54.287 0L54.287 0Z" id="Rectangle" fill="#1E9DEB" stroke="none" />
                <path d="M3.58896 5.8126C3.58896 4.25925 4.7941 3 6.28074 3C7.76735 3 8.97249 4.25925 8.97249 5.8126C8.97249 7.36595 7.76735 8.62519 6.28074 8.62519C4.7941 8.62519 3.58896 7.36595 3.58896 5.8126L3.58896 5.8126Z" id="Oval" fill="#FFFFFF" fill-rule="evenodd" stroke="none" />
                <path d="M37.5431 4.125C37.8194 4.125 38.0431 4.34882 38.0431 4.625L38.0431 6.6251C38.0431 6.90127 37.8194 7.1251 37.5431 7.1251L27.7761 7.1251C27.4999 7.1251 27.2761 6.90127 27.2761 6.6251L27.2761 4.625C27.2761 4.34882 27.4999 4.125 27.7761 4.125L37.5431 4.125L37.5431 4.125Z" id="Rectangle-2" fill="#FFFFFF" stroke="none" />
                <path d="M50.8223 4.125C51.0985 4.125 51.3223 4.34882 51.3223 4.625L51.3223 6.6251C51.3223 6.90127 51.0985 7.1251 50.8223 7.1251L41.0553 7.1251C40.779 7.1251 40.5553 6.90127 40.5553 6.6251L40.5553 4.625C40.5553 4.34882 40.779 4.125 41.0553 4.125L50.8223 4.125L50.8223 4.125Z" id="Rectangle-3" fill="#FFFFFF" stroke="none" />
              </g>
              <g id="Teka-2" transform="translate(0 12.749998)">
                <path d="M54.287 0C54.6323 0 54.912 0.279775 54.912 0.625L54.912 10.6254C54.912 10.9706 54.6323 11.2504 54.287 11.2504L0.625 11.2504C0.279775 11.2504 0 10.9706 0 10.6254L0 0.625C0 0.279775 0.279775 0 0.625 0L54.287 0L54.287 0Z" id="Rectangle#1" fill="#43ADEF" stroke="none" />
                <path d="M3.58896 5.81261C3.58896 4.25924 4.7941 3 6.28073 3C7.76735 3 8.97249 4.25924 8.97249 5.81261C8.97249 7.36595 7.76735 8.62519 6.28073 8.62519C4.7941 8.62519 3.58896 7.36595 3.58896 5.81261L3.58896 5.81261Z" id="Oval#1" fill="#FFFFFF" fill-rule="evenodd" stroke="none" />
                <path d="M37.5431 4.125C37.8194 4.125 38.0431 4.34882 38.0431 4.625L38.0431 6.62499C38.0431 6.90116 37.8194 7.12499 37.5431 7.12499L27.7761 7.12499C27.4999 7.12499 27.2761 6.90116 27.2761 6.62499L27.2761 4.625C27.2761 4.34882 27.4999 4.125 27.7761 4.125L37.5431 4.125L37.5431 4.125Z" id="Rectangle-2#1" fill="#FFFFFF" stroke="none" />
                <path d="M50.8223 4.125C51.0985 4.125 51.3223 4.34882 51.3223 4.625L51.3223 6.62499C51.3223 6.90116 51.0985 7.12499 50.8223 7.12499L41.0553 7.12499C40.779 7.12499 40.5553 6.90116 40.5553 6.62499L40.5553 4.625C40.5553 4.34882 40.779 4.125 41.0553 4.125L50.8223 4.125L50.8223 4.125Z" id="Rectangle-3#1" fill="#FFFFFF" stroke="none" />
              </g>
              <g id="Teka-3" transform="translate(3.5889568 25.499996)">
                <path d="M54.287 0C54.6323 0 54.912 0.279775 54.912 0.625L54.912 10.6254C54.912 10.9706 54.6323 11.2504 54.287 11.2504L0.625 11.2504C0.279775 11.2504 0 10.9706 0 10.6254L0 0.625C0 0.279775 0.279775 0 0.625 0L54.287 0L54.287 0Z" id="Rectangle#2" fill="#43ADEF" stroke="none" />
                <path d="M3.58896 5.81259C3.58896 4.25926 4.7941 3 6.28074 3C7.76735 3 8.97249 4.25926 8.97249 5.81259C8.97249 7.36594 7.76735 8.62519 6.28074 8.62519C4.7941 8.62519 3.58896 7.36594 3.58896 5.81259L3.58896 5.81259Z" id="Oval#2" fill="#FFFFFF" fill-rule="evenodd" stroke="none" />
                <path d="M37.5431 4.125C37.8194 4.125 38.0431 4.34882 38.0431 4.625L38.0431 6.6251C38.0431 6.90129 37.8194 7.1251 37.5431 7.1251L27.7761 7.1251C27.4999 7.1251 27.2761 6.90129 27.2761 6.6251L27.2761 4.625C27.2761 4.34882 27.4999 4.125 27.7761 4.125L37.5431 4.125L37.5431 4.125Z" id="Rectangle-2#2" fill="#FFFFFF" stroke="none" />
                <path d="M50.8223 4.125C51.0985 4.125 51.3223 4.34882 51.3223 4.625L51.3223 6.6251C51.3223 6.90129 51.0985 7.1251 50.8223 7.1251L41.0553 7.1251C40.779 7.1251 40.5553 6.90129 40.5553 6.6251L40.5553 4.625C40.5553 4.34882 40.779 4.125 41.0553 4.125L50.8223 4.125L50.8223 4.125Z" id="Rectangle-3#2" fill="#FFFFFF" stroke="none" />
              </g>
              <g id="Teka-4" transform="translate(0 38.249996)">
                <path d="M54.287 0C54.6323 0 54.912 0.279775 54.912 0.625L54.912 10.6254C54.912 10.9706 54.6323 11.2504 54.287 11.2504L0.625 11.2504C0.279775 11.2504 0 10.9706 0 10.6254L0 0.625C0 0.279775 0.279775 0 0.625 0L54.287 0L54.287 0Z" id="Rectangle#3" fill="#0C5888" stroke="none" />
                <path d="M3.58896 5.81256C3.58896 4.25925 4.7941 3 6.28073 3C7.76735 3 8.97249 4.25925 8.97249 5.81256C8.97249 7.366 7.76735 8.62519 6.28073 8.62519C4.7941 8.62519 3.58896 7.366 3.58896 5.81256L3.58896 5.81256Z" id="Oval#3" fill="#FFFFFF" fill-rule="evenodd" stroke="none" />
                <path d="M37.5431 4.125C37.8194 4.125 38.0431 4.34882 38.0431 4.625L38.0431 6.62499C38.0431 6.90116 37.8194 7.12499 37.5431 7.12499L27.7761 7.12499C27.4999 7.12499 27.2761 6.90116 27.2761 6.62499L27.2761 4.625C27.2761 4.34882 27.4999 4.125 27.7761 4.125L37.5431 4.125L37.5431 4.125Z" id="Rectangle-2#3" fill="#FFFFFF" stroke="none" />
                <path d="M50.8223 4.125C51.0985 4.125 51.3223 4.34882 51.3223 4.625L51.3223 6.62499C51.3223 6.90116 51.0985 7.12499 50.8223 7.12499L41.0553 7.12499C40.779 7.12499 40.5553 6.90116 40.5553 6.62499L40.5553 4.625C40.5553 4.34882 40.779 4.125 41.0553 4.125L50.8223 4.125L50.8223 4.125Z" id="Rectangle-3#3" fill="#FFFFFF" stroke="none" />
              </g>
              <path d="M39.4785 51L48.092 51L48.092 60L43.7853 57L39.4785 60L39.4785 51L39.4785 51Z" id="Rectangle#4" fill="#0C5888" fill-rule="evenodd" stroke="none" />
            </g>
          </g>
        </g>
      </g>
    </g>
    <g id="SnapStorage" clip-path="url(#clip_4)" transform="translate(71 14.712002)">
      <g transform="translate(0, 11.051999)" id="SnapStorage" fill="#43ADEF">
        <path d="M3.276 27.36Q6.336 30.42 9.396 30.42Q10.98 30.42 11.934 29.682Q12.888 28.944 12.888 27.774Q12.888 26.604 11.736 25.794Q10.584 24.984 8.946 24.372Q7.308 23.76 5.688 22.986Q4.068 22.212 2.916 20.772Q1.764 19.332 1.764 17.28Q1.764 14.04 4.464 11.682Q7.164 9.324 10.872 9.324Q12.564 9.324 14.148 9.684Q15.732 10.044 17.208 10.728L14.76 15.984Q13.752 15.192 12.006 14.526Q10.26 13.86 8.946 13.86Q7.632 13.86 6.822 14.49Q6.012 15.12 6.012 16.164Q6.012 17.208 7.164 18.018Q8.316 18.828 9.954 19.44Q11.592 20.052 13.23 20.79Q14.868 21.528 16.02 22.968Q17.172 24.408 17.172 26.46Q17.172 29.844 14.472 32.382Q11.772 34.92 8.172 34.92Q5.472 34.92 3.384 33.624Q1.548 32.508 0.792 31.644L0.468 31.248L3.276 27.36ZM30.636 25.416Q30.636 22.932 30.204 22.104Q29.772 21.276 28.188 21.276Q26.604 21.276 24.588 22.536L24.588 25.164L24.984 33.624L20.16 34.524L20.592 25.776Q20.448 20.952 19.8 17.136L24.156 16.2Q24.408 18.288 24.516 20.268Q25.056 19.548 25.74 18.846Q26.424 18.144 27.9 17.262Q29.376 16.38 31.014 16.38Q32.652 16.38 33.768 17.658Q34.884 18.936 34.884 21.132L34.668 25.164L35.064 33.804L30.204 34.704L30.636 25.416ZM42.624 34.524Q40.5 34.524 39.15 33.174Q37.8 31.824 37.8 29.538Q37.8 27.252 39.888 25.578Q41.976 23.904 44.964 23.904L47.412 23.904L47.412 23.292Q47.412 21.528 46.692 20.88Q45.972 20.232 43.992 20.232Q43.164 20.232 42.03 20.574Q40.896 20.916 39.492 21.636L38.448 18.792Q39.996 17.712 42.21 16.848Q44.424 15.984 45.864 15.984Q51.516 15.984 51.516 21.456L51.516 28.512Q51.516 30.528 52.776 33.012L48.96 34.632Q48.06 32.904 47.628 31.536Q45.648 34.524 42.624 34.524ZM44.136 30.852Q45.576 30.852 47.412 29.376L47.412 26.964Q45.504 26.532 44.316 26.532Q42.048 26.532 42.048 28.548Q42.048 29.592 42.624 30.222Q43.2 30.852 44.136 30.852ZM65.52 16.344Q67.824 16.344 69.39 18.36Q70.956 20.376 70.956 23.796Q70.956 28.584 68.49 31.554C66.846 33.534 64.8 34.524 62.352 34.524C61.848 34.524 61.284 34.488 60.66 34.416L60.84 41.292L55.908 42.192L56.376 25.776L56.412 25.776Q56.268 20.952 55.62 17.136L59.976 16.2Q60.192 18.108 60.336 19.98Q60.408 19.8 61.074 18.99Q61.74 18.18 63.036 17.262Q64.332 16.344 65.52 16.344ZM64.116 21.024Q62.208 21.024 60.408 22.068L60.408 25.164L60.552 30.312Q62.496 30.636 63.504 30.636Q66.96 30.636 66.96 25.83Q66.96 21.024 64.116 21.024ZM75.132 27.36Q78.192 30.42 81.252 30.42Q82.836 30.42 83.79 29.682Q84.744 28.944 84.744 27.774Q84.744 26.604 83.592 25.794Q82.44 24.984 80.802 24.372Q79.164 23.76 77.544 22.986Q75.924 22.212 74.772 20.772Q73.62 19.332 73.62 17.28Q73.62 14.04 76.32 11.682Q79.02 9.324 82.728 9.324Q84.42 9.324 86.004 9.684Q87.588 10.044 89.064 10.728L86.616 15.984Q85.608 15.192 83.862 14.526Q82.116 13.86 80.802 13.86Q79.488 13.86 78.678 14.49Q77.868 15.12 77.868 16.164Q77.868 17.208 79.02 18.018Q80.172 18.828 81.81 19.44Q83.448 20.052 85.086 20.79Q86.724 21.528 87.876 22.968Q89.028 24.408 89.028 26.46Q89.028 29.844 86.328 32.382Q83.628 34.92 80.028 34.92Q77.328 34.92 75.24 33.624Q73.404 32.508 72.648 31.644L72.324 31.248L75.132 27.36ZM93.456 17.1L93.456 13.176L98.316 12.24L97.848 17.1L102.204 17.1L101.808 20.052L97.704 20.052L97.524 27.576Q97.524 29.268 97.848 29.826Q98.172 30.384 99.036 30.384Q99.9 30.384 101.34 29.988L101.556 32.544Q99.18 34.524 97.38 34.524Q95.58 34.524 94.428 33.21Q93.276 31.896 93.276 29.772L93.492 25.74L93.456 20.052L90.972 20.052L91.368 17.1L93.456 17.1ZM103.752 27Q103.752 22.392 106.236 19.188Q108.72 15.984 112.05 15.984Q115.38 15.984 117.234 18.144Q119.088 20.304 119.088 23.868Q119.088 28.62 116.694 31.77Q114.3 34.92 110.664 34.92Q107.676 34.92 105.714 32.67Q103.752 30.42 103.752 27ZM115.056 25.74Q115.056 20.52 111.492 20.52Q107.784 20.52 107.784 25.416Q107.784 27.972 108.828 29.412Q109.872 30.852 111.582 30.852Q113.292 30.852 114.174 29.538Q115.056 28.224 115.056 25.74ZM121.788 17.136L126.144 16.2Q126.468 18.972 126.576 21.456Q129.852 16.38 132.732 16.38L132.336 21.996Q130.248 21.996 129.042 22.374Q127.836 22.752 126.576 23.868L126.576 25.164L126.972 33.624L122.148 34.524L122.58 25.776Q122.436 20.952 121.788 17.136ZM138.6 34.524Q136.476 34.524 135.126 33.174Q133.776 31.824 133.776 29.538Q133.776 27.252 135.864 25.578Q137.952 23.904 140.94 23.904L143.388 23.904L143.388 23.292Q143.388 21.528 142.668 20.88Q141.948 20.232 139.968 20.232Q139.14 20.232 138.006 20.574Q136.872 20.916 135.468 21.636L134.424 18.792Q135.972 17.712 138.186 16.848Q140.4 15.984 141.84 15.984Q147.492 15.984 147.492 21.456L147.492 28.512Q147.492 30.528 148.752 33.012L144.936 34.632Q144.036 32.904 143.604 31.536Q141.624 34.524 138.6 34.524ZM140.112 30.852Q141.552 30.852 143.388 29.376L143.388 26.964Q141.48 26.532 140.292 26.532Q138.024 26.532 138.024 28.548Q138.024 29.592 138.6 30.222Q139.176 30.852 140.112 30.852ZM150.624 38.088Q150.624 34.92 156.528 33.12Q155.124 32.4 155.124 31.248Q155.124 30.78 155.484 30.312Q155.844 29.844 156.528 29.34L156.528 29.052Q153.936 29.052 152.406 27.612Q150.876 26.172 150.876 23.76Q150.876 20.628 153.432 18.306Q155.988 15.984 159.48 15.984Q160.38 15.984 162.108 16.344Q163.836 16.704 165.492 16.704L168.264 16.704L167.904 19.836L165.204 19.512Q165.564 20.556 165.564 21.888Q165.564 23.22 164.934 24.534Q164.304 25.848 163.422 26.64Q162.54 27.432 161.658 28.026Q160.776 28.62 160.146 29.07Q159.516 29.52 159.516 29.88Q159.516 30.564 160.956 31.068Q164.772 32.616 166.122 33.696Q167.472 34.776 167.472 36.36Q167.472 39.024 164.79 40.734Q162.108 42.444 158.4 42.444Q154.692 42.444 152.658 41.256Q150.624 40.068 150.624 38.088ZM161.496 22.968Q161.496 21.204 160.704 20.376Q159.912 19.548 158.22 19.548Q154.944 19.548 154.944 22.77Q154.944 25.992 158.436 25.992Q161.496 25.992 161.496 22.968ZM162.792 36.9Q162.792 36.252 162.108 35.694Q161.424 35.136 159.66 34.38Q157.032 35.1 156.042 35.712Q155.052 36.324 155.052 37.224Q155.052 38.124 156.042 38.682Q157.032 39.24 158.796 39.24Q160.56 39.24 161.676 38.592Q162.792 37.944 162.792 36.9ZM176.652 30.852Q177.696 30.852 178.848 30.312Q180 29.772 180.648 29.232L181.296 28.692L182.952 30.708Q182.592 31.32 181.836 32.112Q181.08 32.904 180.306 33.462Q179.532 34.02 178.254 34.47Q176.976 34.92 175.608 34.92Q172.692 34.92 170.856 32.706Q169.02 30.492 169.02 27Q169.02 22.608 171.576 19.296Q174.132 15.984 177.552 15.984Q180.18 15.984 181.638 17.46Q183.096 18.936 183.096 21.6Q183.096 23.184 182.556 25.2L181.836 25.956L172.836 26.784Q173.448 30.852 176.652 30.852ZM176.652 19.692Q175.068 19.692 173.988 20.97Q172.908 22.248 172.728 24.228L178.848 23.472Q178.956 22.644 178.956 22.104Q178.956 19.692 176.652 19.692Z" />
      </g>
    </g>
  </g>
</svg>